/vscmnt/brussel_pixiu_data/_data_brussel/112/vsc11236/PredSimResults/SUBJ07mtu3D/weighted-trackIG/worker_04.mot
version=1
nRows=8
nColumns=50
inDegrees=yes
endheader
                time	         pelvis_tilt	         pelvis_list	     pelvis_rotation	           pelvis_tx	           pelvis_ty	           pelvis_tz	       hip_flexion_r	     hip_adduction_r	      hip_rotation_r	        knee_angle_r	       ankle_angle_r	         mtp_angle_r	       hip_flexion_l	     hip_adduction_l	      hip_rotation_l	        knee_angle_l	       ankle_angle_l	         mtp_angle_l	    lumbar_extension	      lumbar_bending	     lumbar_rotation	 ercspn_r/activation	 intobl_r/activation	 extobl_r/activation	    abd_r/activation	    add_r/activation	hamstrings_r/activation	bifemsh_r/activation	glut_max_r/activation	iliopsoas_r/activation	rect_fem_r/activation	  vasti_r/activation	gastroc_r/activation	 soleus_r/activation	tib_ant_r/activation	 ercspn_l/activation	 intobl_l/activation	 extobl_l/activation	    abd_l/activation	    add_l/activation	hamstrings_l/activation	bifemsh_l/activation	glut_max_l/activation	iliopsoas_l/activation	rect_fem_l/activation	  vasti_l/activation	gastroc_l/activation	 soleus_l/activation	tib_ant_l/activation	
          0.00000000	         -6.98978832	         -3.72188614	         10.41849310	          0.00000000	          0.84219036	         -0.01536168	         32.28650233	         -0.93297700	         -8.62238156	         -5.26916905	          7.19444905	          0.25184680	        -12.71537154	         -4.33230465	          5.45265063	         -7.59025039	          7.52018978	         30.15743775	         -6.30384180	          2.11180486	         -3.50277951	          0.08624883	          0.15266685	          0.02453168	          0.00999999	          0.21428833	          0.05826265	          0.19178952	          0.06878019	          0.09044921	          0.01000002	          0.00999999	          0.02855312	          0.01024323	          0.27385997	          0.08155704	          0.00999999	          0.01000000	          0.03395354	          0.09034411	          0.02645251	          0.13624561	          0.02851312	          0.44247115	          0.01000002	          0.01000001	          0.28154264	          0.26330050	          0.01779087	
          0.01144833	         -7.05360820	         -3.58817485	         10.31637060	          0.01677278	          0.84033398	         -0.01503672	         32.42567515	         -0.78213233	         -7.89604212	         -7.38084651	          6.90657091	          0.23117329	        -12.73133819	         -4.21752825	          4.92015061	         -9.60092698	          6.72781209	         31.89787106	         -6.09475558	          2.59679735	         -3.55055237	          0.07242899	          0.14799455	          0.02060091	          0.01152611	          0.19637172	          0.06259661	          0.16105866	          0.13014012	          0.07595633	          0.01000000	          0.00999999	          0.02397799	          0.01361621	          0.30602925	          0.10764177	          0.00999999	          0.01190804	          0.02851309	          0.12436589	          0.02643995	          0.11441467	          0.02394440	          0.43303003	          0.01000000	          0.01000000	          0.23643043	          0.24407486	          0.01494020	
          0.02289665	         -7.10122065	         -3.45463713	         10.14772883	          0.03376123	          0.83875520	         -0.01465179	         32.33343532	         -0.63704340	         -7.21710714	         -9.14601051	          6.54634925	          0.22480096	        -12.51688184	         -4.08070909	          4.32488770	        -12.08248626	          5.79406725	         33.53807148	         -5.87902660	          3.09557141	         -3.56800409	          0.08649034	          0.12428105	          0.01729998	          0.09961840	          0.21113564	          0.06204631	          0.13525188	          0.13602257	          0.06378568	          0.01000000	          0.00999999	          0.02013594	          0.01143446	          0.33869248	          0.13940364	          0.00999999	          0.01000000	          0.02394437	          0.11350151	          0.02220343	          0.09608176	          0.02010773	          0.41838750	          0.01000001	          0.01000000	          0.19854665	          0.20851327	          0.01254630	
          0.03434498	         -7.13354369	         -3.31439450	          9.91956286	          0.05072184	          0.83760448	         -0.01416806	         32.10177879	         -0.47091604	         -6.62673749	        -10.67529344	          6.15646519	          0.20782588	        -12.01221956	         -3.92398151	          3.68205807	        -15.09292608	          4.69763847	         34.89999319	         -5.68137809	          3.59391795	         -3.55919810	          0.09045862	          0.10436722	          0.01452797	          0.13809613	          0.21858979	          0.05210451	          0.11358017	          0.17043444	          0.05356516	          0.01000000	          0.01000000	          0.01690952	          0.01000003	          0.35724888	          0.17302524	          0.00999999	          0.01000000	          0.02010771	          0.12153936	          0.01864573	          0.08068636	          0.01688583	          0.38608186	          0.01000000	          0.00999999	          0.16673307	          0.17510272	          0.01053597	
          0.04579330	         -7.14995386	         -3.17703278	          9.63667669	          0.06747268	          0.83698501	         -0.01359131	         31.81325646	         -0.28234904	         -6.10936603	        -12.12635883	          5.89918644	          0.19575984	        -11.18949257	         -3.76673995	          2.99058335	        -18.64129398	          3.46998061	         35.67667777	         -5.51460494	          4.09990425	         -3.52263279	          0.08415018	          0.08764423	          0.01220012	          0.15926872	          0.20160286	          0.04650490	          0.09538097	          0.17897323	          0.04498229	          0.01000000	          0.06288336	          0.01420007	          0.01000001	          0.36767828	          0.20231137	          0.00999999	          0.01000000	          0.01688581	          0.13228324	          0.01565809	          0.06775781	          0.01418017	          0.32602096	          0.00999999	          0.00999999	          0.14001706	          0.14704562	          0.00999999	
          0.05724163	         -7.15224641	         -3.03998102	          9.30053349	          0.08390076	          0.83701097	         -0.01294525	         31.46506175	         -0.08113049	         -5.65952849	        -13.46416009	          5.74922708	          0.18149989	        -10.05442445	         -3.61826840	          2.24744034	        -22.66731185	          2.06781693	         35.64125040	         -5.38554043	          4.60817394	         -3.45764995	          0.07066661	          0.07360080	          0.01024527	          0.16138556	          0.16929959	          0.04821342	          0.08009787	          0.16389467	          0.03777468	          0.01000000	          0.15113785	          0.01192476	          0.01000001	          0.37237662	          0.21528492	          0.00999999	          0.01000000	          0.01418016	          0.14873783	          0.01314916	          0.05690085	          0.01190805	          0.27378189	          0.00999999	          0.00999999	          0.11758181	          0.12348417	          0.00999999	
          0.06868995	         -7.14393809	         -2.88928565	          8.90974231	          0.09996188	          0.83775693	         -0.01225963	         31.00456139	          0.12139157	         -5.25156288	        -14.58963885	          5.74559280	          0.16902971	         -8.64939486	         -3.47444279	          1.46901964	        -27.00571341	          0.28767847	         34.85331514	         -5.29672300	          5.10183607	         -3.36285171	          0.05934354	          0.06180758	          0.00999999	          0.16376345	          0.14217234	          0.04821724	          0.06726361	          0.13763358	          0.03172196	          0.01000000	          0.20893723	          0.01001403	          0.01000000	          0.36353376	          0.21337468	          0.00999999	          0.01000000	          0.01190804	          0.15916102	          0.01104225	          0.05560640	          0.01000000	          0.22991320	          0.00999999	          0.00999999	          0.09874141	          0.10369802	          0.00999999	
          0.08013828	         -7.12764767	         -2.71225253	          8.46457525	          0.11565011	          0.83919807	         -0.01156308	         30.39517539	          0.31570572	         -4.83779770	        -15.44069865	          5.90721648	          0.16044177	         -7.03356856	         -3.32874517	          0.68345641	        -31.47785376	         -1.91284264	         33.24598410	         -5.24834764	          5.56673856	         -3.23689227	          0.04983479	          0.05190401	          0.01000000	          0.17010505	          0.11939174	          0.04744040	          0.05648581	          0.11558024	          0.02663908	          0.01000000	          0.22122948	          0.01000004	          0.01000002	          0.34219306	          0.21614387	          0.01665324	          0.01000000	          0.00999999	          0.14528671	          0.01190808	          0.04669649	          0.00999999	          0.19307369	          0.00999999	          0.00999999	          0.08291985	          0.08708226	          0.03344952	
